Coordinates
version=1
nRows=16
nColumns=40
inDegrees=yes

Units are S.I. units (second, meters, Newtons, ...)
Angles are in degrees.

endheader
time	pelvis_tilt	pelvis_list	pelvis_rotation	pelvis_tx	pelvis_ty	pelvis_tz	hip_flexion_r	hip_adduction_r	hip_rotation_r	knee_angle_r	knee_angle_r_beta	ankle_angle_r	subtalar_angle_r	mtp_angle_r	hip_flexion_l	hip_adduction_l	hip_rotation_l	knee_angle_l	knee_angle_l_beta	ankle_angle_l	subtalar_angle_l	mtp_angle_l	lumbar_extension	lumbar_bending	lumbar_rotation	arm_flex_r	arm_add_r	arm_rot_r	elbow_flex_r	pro_sup_r	wrist_flex_r	wrist_dev_r	arm_flex_l	arm_add_l	arm_rot_l	elbow_flex_l	pro_sup_l	wrist_flex_l	wrist_dev_l
      0.63000000	      4.15205644	      3.40736161	     -7.74857822	     -0.67469389	      0.90202675	     -1.44958845	     11.33873610	     -6.51601564	     -4.86802471	    -65.36832693	     -1.14089253	     -7.69565748	    -16.10866924	     14.23097130	      4.37567693	     -6.87306693	     12.76096842	    -15.03774319	     -0.26245813	      4.42728038	     -4.40158632	     -4.30140335	     -9.26444044	     -4.12573477	     -0.58307006	      8.24581942	     -8.37813495	     24.04117867	     18.91548720	     89.95437384	      0.00000000	      0.00000000	      4.33796323	      9.58852595	    -18.31499602	     14.70291506	     89.95437384	      0.00000000	      0.00000000
      0.64000000	      4.27346743	      3.16684174	     -7.46016396	     -0.66532498	      0.90267798	     -1.44998199	     12.52594719	     -6.19112958	     -4.75669369	    -65.65678836	     -1.14592713	     -7.16091947	    -16.02532500	     14.02654649	      3.44215975	     -6.77179617	     12.56790206	    -14.88847122	     -0.25985284	      4.79385537	     -4.43690865	     -4.29473181	     -9.37051151	     -3.72654177	     -0.91556297	      7.93382990	     -8.50143202	     24.03949264	     18.33597981	     89.95437384	      0.00000000	      0.00000000	      5.55955005	      9.79098114	    -18.20945824	     14.99074614	     89.95437384	      0.00000000	      0.00000000
      0.65000000	      4.34605096	      2.89778057	     -7.19346175	     -0.65597793	      0.90328771	     -1.45027998	     13.65328522	     -5.62974206	     -4.37969619	    -65.57388409	     -1.14448018	     -6.27609170	    -15.95076394	     13.79838472	      2.46019066	     -6.65577041	     12.07147255	    -14.57211019	     -0.25433130	      5.34818075	     -4.57650705	     -4.31317084	     -9.38367599	     -3.29018967	     -1.18097810	      7.65377704	     -8.60062986	     23.99969143	     17.61526244	     89.95437384	      0.00000000	      0.00000000	      6.64628920	      9.97349090	    -18.12657450	     15.33554089	     89.95437384	      0.00000000	      0.00000000
      0.66000000	      4.92201538	      2.43017957	     -6.78380455	     -0.64625423	      0.90472755	     -1.45028903	     13.88373381	     -4.88345666	     -4.17663822	    -64.92423124	     -1.13314160	     -5.02160367	    -15.19802384	     13.35689982	      0.68985008	     -6.46181638	     11.03777266	    -13.87564303	     -0.24217566	      6.17080107	     -3.93516661	     -3.93219520	     -9.97492879	     -2.75126966	     -1.52243864	      7.28912578	     -8.61204572	     23.24614276	     17.01837392	     89.95437384	      0.00000000	      0.00000000	      7.65727289	     10.33302562	    -18.51646168	     16.03924738	     89.95437384	      0.00000000	      0.00000000
      0.67000000	      4.78140792	      2.30540630	     -6.46420960	     -0.63728879	      0.90484950	     -1.45100983	     15.24896031	     -4.63516630	     -4.06954039	    -64.48086619	     -1.12540342	     -4.41989102	    -14.94203712	     13.06214726	      0.09957941	     -6.41180644	     10.94389408	    -13.71862025	     -0.23943509	      6.45073634	     -3.97309162	     -3.89747128	     -9.78026252	     -2.40506451	     -1.79249998	      6.88059547	     -8.86649254	     23.13312353	     16.69154119	     89.95437384	      0.00000000	      0.00000000	      8.70404010	     10.51773004	    -18.26381162	     16.70630001	     89.95437384	      0.00000000	      0.00000000
      0.68000000	      4.65504140	      2.16436488	     -6.18082384	     -0.62820181	      0.90495411	     -1.45131052	     16.48091752	     -4.18163139	     -3.76960652	    -63.72741061	     -1.11225314	     -3.51004336	    -14.68794200	     12.73446724	     -0.58642557	     -6.34234502	     10.57929144	    -13.49540685	     -0.23553928	      6.75100457	     -4.17156801	     -3.89171436	     -9.56886018	     -2.10403290	     -2.00132562	      6.42943873	     -9.04173535	     22.99234807	     16.24181206	     89.95437384	      0.00000000	      0.00000000	      9.65240088	     10.73821143	    -17.94328549	     17.42569930	     89.95437384	      0.00000000	      0.00000000
      0.69000000	      5.09498070	      1.77447895	     -5.87833837	     -0.61897078	      0.90588254	     -1.45144776	     16.85345551	     -3.55817677	     -3.63059585	    -62.58799519	     -1.09236659	     -2.13210311	    -13.96935488	     11.99512676	     -2.04227898	     -6.07581825	     10.17743220	    -13.00988795	     -0.22706538	      7.02792682	     -4.26855803	     -3.77029280	    -10.06401544	     -1.58113248	     -2.28017051	      6.07725311	     -9.11155328	     21.95408372	     15.88777928	     89.95437384	      0.00000000	      0.00000000	     10.54692462	     10.86312312	    -16.46865548	     18.43910232	     89.95437384	      0.00000000	      0.00000000
      0.70000000	      4.89511961	      1.72008259	     -5.53631973	     -0.60989512	      0.90558032	     -1.45181250	     18.06130119	     -3.33026300	     -3.58190180	    -61.43942183	     -1.07232020	     -1.54899184	    -13.70476955	     11.70153393	     -2.55075872	     -6.05214831	     10.07834144	    -12.89480903	     -0.22505687	      7.37583973	     -4.37628881	     -3.77902002	     -9.75616038	     -1.37710098	     -2.50071003	      5.53477465	     -9.31775163	     21.77444515	     15.66323332	     89.95437384	      0.00000000	      0.00000000	     11.41719851	     11.09981182	    -16.14830791	     19.33085012	     89.95437384	      0.00000000	      0.00000000
      0.71000000	      5.30292102	      1.27328289	     -5.18989407	     -0.60075468	      0.90628110	     -1.45185600	     18.28075437	     -2.69619225	     -3.68765441	    -59.75301186	     -1.04288679	     -0.61841946	    -13.42648825	     11.07907895	     -3.93228881	     -5.64544611	      9.85992586	    -12.48100679	     -0.21783466	      7.71567057	     -4.76426048	     -3.80326469	    -10.23675677	     -0.80128130	     -2.76964175	      5.18700499	     -9.39828282	     20.82126004	     15.36143889	     89.95437384	      0.00000000	      0.00000000	     12.21942146	     11.26919222	    -15.06820884	     20.49876913	     89.95437384	      0.00000000	      0.00000000
      0.72000000	      5.25914621	      1.09768930	     -4.94670018	     -0.59219310	      0.90601761	     -1.45193222	     19.17240808	     -2.36248325	     -3.74366201	    -58.11662411	     -1.01432644	      0.00692937	    -13.24057079	     10.62091714	     -4.59585142	     -5.48810526	      9.79389758	    -12.34299905	     -0.21542597	      8.12761352	     -4.96558164	     -3.86287824	    -10.22509669	     -0.49671984	     -2.92632616	      4.82801400	     -9.54557211	     20.44109437	     15.06498127	     89.95437384	      0.00000000	      0.00000000	     13.03132009	     11.49622247	    -14.40983917	     21.67331762	     89.95437384	      0.00000000	      0.00000000
      0.73000000	      5.17085489	      0.96859361	     -4.68627871	     -0.58345230	      0.90553117	     -1.45201239	     20.02493748	     -2.14719118	     -3.92237246	    -56.30415544	     -0.98269289	      0.55668916	    -12.96503662	     10.29892214	     -5.21212017	     -5.37987715	      9.67316646	    -12.19346089	     -0.21281604	      8.69441408	     -5.15083269	     -3.96385664	    -10.15530717	     -0.24154695	     -3.10458931	      4.45793519	     -9.66809214	     20.13078189	     14.79372693	     89.95437384	      0.00000000	      0.00000000	     13.77370345	     11.77461486	    -14.07330488	     22.89293887	     89.95437384	      0.00000000	      0.00000000
      0.74000000	      5.43392018	      0.64884732	     -4.22395406	     -0.57451355	      0.90564235	     -1.45209286	     20.22022416	     -1.82048887	     -4.38187305	    -54.06819152	     -0.94366796	      0.93880956	    -12.69253444	     10.01023836	     -6.25720528	     -5.03348854	      9.50118728	    -12.02156064	     -0.20981581	      8.91166237	     -5.42460440	     -4.04203111	    -10.47293351	      0.20143846	     -3.43848119	      4.12447381	     -9.74621233	     19.79129121	     14.49257574	     89.95437384	      0.00000000	      0.00000000	     14.62393806	     11.95627448	    -13.61166706	     23.91130714	     89.95437384	      0.00000000	      0.00000000
      0.75000000	      5.14963132	      0.84120731	     -4.05012945	     -0.56602195	      0.90458700	     -1.45226737	     21.27915208	     -2.05827344	     -4.65317493	    -52.08643870	     -0.90907985	      1.17675018	    -12.31404977	      9.83506930	     -6.48558017	     -5.25111620	      9.55666996	    -12.14162924	     -0.21191141	      9.18057178	     -5.42379756	     -4.06360436	    -10.15805398	      0.09733812	     -3.44698813	      3.68215901	     -9.89771892	     19.67728943	     14.33663826	     89.95437384	      0.00000000	      0.00000000	     15.45697715	     12.12395290	    -13.38942310	     24.92195104	     89.95437384	      0.00000000	      0.00000000
      0.76000000	      5.36887161	      0.27999701	     -3.53279124	     -0.55714500	      0.90448799	     -1.45213862	     21.22841370	     -1.42575470	     -5.13841968	    -49.35160341	     -0.86134797	      1.51387714	    -11.70040447	      9.59716239	     -7.41049351	     -4.61107641	      9.00202617	    -12.15047752	     -0.21206584	      9.82661668	     -5.66689342	     -4.21708332	    -10.48879048	      0.80662544	     -3.85135472	      3.50413677	     -9.90511143	     19.28961042	     13.89019683	     89.95437384	      0.00000000	      0.00000000	     16.05114109	     12.38182970	    -13.02703820	     26.31538199	     89.95437384	      0.00000000	      0.00000000
      0.77000000	      5.07904594	      0.58939815	     -3.42654632	     -0.54857291	      0.90317876	     -1.45221577	     22.18702893	     -1.87025794	     -5.67130027	    -47.11775743	     -0.82236000	      1.65804006	    -11.32583464	      9.46990096	     -7.61141803	     -4.94198910	      9.11101367	    -12.31893408	     -0.21500596	     10.00961963	     -5.63074222	     -4.21614675	    -10.17272954	      0.56127095	     -3.78144071	      3.02768617	    -10.02809525	     19.17707007	     13.84686916	     89.95437384	      0.00000000	      0.00000000	     16.87368483	     12.46225578	    -12.83532720	     27.20906480	     89.95437384	      0.00000000	      0.00000000
      0.78000000	      5.70806974	     -0.05281036	     -2.73241176	     -0.53945176	      0.90366628	     -1.45235916	     21.32667007	     -1.38595990	     -6.78327750	    -43.79130564	     -0.76430247	      1.56913586	    -10.37604280	      9.18334486	     -9.06832260	     -4.19852597	      8.48059845	    -12.16911663	     -0.21239115	     10.46986975	     -5.80040324	     -4.39831265	    -10.95019367	      1.37366115	     -4.33337772	      2.84802092	    -10.03839191	     18.52545375	     13.61381934	     89.95437384	      0.00000000	      0.00000000	     17.52373836	     12.62973989	    -12.50384011	     28.44149044	     89.95437384	      0.00000000	      0.00000000
